<?xml version="1.0" encoding="UTF-8" standalone="no"?>
<!DOCTYPE svg PUBLIC "-//W3C//DTD SVG 1.1//EN" "http://www.w3.org/Graphics/SVG/1.1/DTD/svg11.dtd">
<svg width="100%" height="100%" viewBox="0 0 367 367" version="1.1" xmlns="http://www.w3.org/2000/svg" xmlns:xlink="http://www.w3.org/1999/xlink" xml:space="preserve" xmlns:serif="http://www.serif.com/" style="fill-rule:evenodd;clip-rule:evenodd;stroke-linejoin:round;stroke-miterlimit:2;">
    <path id="path3045-174" d="M110.801,0.016C106.852,0.016 103.402,2.738 102.501,6.583C101.598,10.427 103.464,14.361 107,16.116L107,47.549C107,51.559 108.599,55.414 111.434,58.249L121.267,68.082C107.825,85.594 101.792,108.037 104.534,130.282L104.534,130.482C102.473,129.901 100.68,128.996 99.2,127.715L82.933,111.416C82.846,111.329 82.751,111.267 82.664,111.183C79.857,108.508 76.118,107.016 72.231,107.016L16.133,107.016C14.378,103.479 10.41,101.615 6.566,102.516C2.722,103.417 0,106.834 0,110.783C0,114.731 2.723,118.148 6.566,119.049C10.411,119.951 14.378,118.087 16.133,114.549L69.966,114.549C71.852,114.549 73.678,115.253 75.066,116.516C75.154,116.596 75.248,116.698 75.334,116.783L103.768,145.216C104.517,146.075 105.258,147.002 106.001,147.949C108.31,150.888 110.589,154.208 112.734,157.749C113.971,160.241 115.329,162.669 116.801,165.016L117.233,165.812C126.564,184.212 131.049,204.413 119.266,204.779L60.068,204.779C56.059,204.779 52.204,206.378 49.368,209.212L11.234,247.346C7.491,246.085 3.383,247.586 1.301,250.946C-0.78,254.302 -0.291,258.62 2.501,261.412C5.294,264.204 9.646,264.727 13.001,262.646C16.357,260.565 17.828,256.455 16.568,252.713L54.701,214.579C56.119,213.162 58.063,212.346 60.067,212.346L119.267,212.346C119.402,212.348 119.536,212.374 119.671,212.38C134.879,213.052 154.065,234.584 154.471,248.313L154.471,287.846C154.47,289.538 153.895,291.159 152.87,292.479C152.678,292.719 152.496,292.959 152.275,293.18L111.442,334.014C108.607,336.85 107.009,340.671 107.008,344.68L107.008,350.08C103.472,351.835 101.607,355.769 102.509,359.614C103.411,363.459 106.86,366.181 110.809,366.181C114.757,366.181 118.174,363.459 119.076,359.614C119.978,355.769 118.113,351.836 114.576,350.08L114.576,344.68C114.576,342.675 115.354,340.765 116.776,339.347L157.61,298.513C157.831,298.292 158.042,298.081 158.243,297.851C160.681,295.095 162.043,291.551 162.043,287.851L162.043,249.184C162.047,249.059 162.066,248.944 162.076,248.819C163.23,234.46 203.232,230.391 204.21,249.184L204.21,272.784C204.21,276.794 205.774,280.616 208.609,283.451L249.443,324.284C250.65,325.491 251.411,327.073 251.609,328.751C251.644,329.049 251.643,329.317 251.643,329.615L251.643,350.085C248.105,351.84 246.242,355.774 247.143,359.619C248.045,363.463 251.494,366.185 255.443,366.185C259.392,366.185 262.808,363.463 263.71,359.619C264.612,355.774 262.748,351.841 259.21,350.085L259.21,329.618C259.21,329.321 259.195,329.013 259.177,328.716C258.956,325.035 257.399,321.572 254.777,318.949L213.977,278.116C212.561,276.698 211.745,274.787 211.745,272.782L211.745,249.182C212.052,229.787 227.542,223.047 239.245,222.449L316.278,222.449C318.163,222.449 319.989,223.149 321.377,224.416C321.466,224.495 321.521,224.598 321.608,224.685L349.641,252.718C348.381,256.46 349.852,260.57 353.208,262.651C356.564,264.732 360.915,264.21 363.708,261.418C366.5,258.625 367.022,254.307 364.941,250.951C362.913,247.68 358.938,246.191 355.274,247.285C355.179,247.313 355.102,247.319 355.006,247.351L326.973,219.318C326.886,219.231 326.79,219.174 326.704,219.087C323.897,216.413 320.157,214.921 316.27,214.921L242.472,214.921C223.841,214.7 253.999,154.821 266.373,154.288L313.273,154.288C313.407,154.288 313.541,154.291 313.676,154.288C317.545,154.188 321.232,152.597 323.976,149.854L355.009,118.849C358.752,120.11 362.861,118.604 364.942,115.249C367.023,111.893 366.501,107.575 363.709,104.783C360.916,101.991 356.598,101.468 353.242,103.549C349.886,105.63 348.381,109.741 349.642,113.483L318.642,144.516C317.319,145.839 315.533,146.617 313.675,146.716C313.54,146.723 313.406,146.716 313.272,146.716L264.407,146.716C262.451,146.478 260.607,145.561 258.84,144.116C258.915,143.86 258.965,143.605 259.041,143.349C266.729,116.436 260.789,87.258 243.241,65.916L243.241,29.149C243.241,27.144 244.057,25.233 245.474,23.816L252.708,16.582C256.45,17.842 260.593,16.337 262.675,12.982C264.756,9.626 264.234,5.275 261.441,2.482C258.648,-0.31 254.297,-0.799 250.941,1.282C247.585,3.363 246.114,7.473 247.375,11.216L240.141,18.482C237.306,21.318 235.708,25.139 235.708,29.149L235.708,57.916C204.03,28.597 155.858,30.446 126.342,62.082L126.179,62.282L116.778,52.915C115.36,51.498 114.578,49.553 114.578,47.549L114.578,16.115C118.116,14.36 119.979,10.427 119.077,6.582C118.175,2.738 114.759,0.015 110.811,0.015L110.801,0.016ZM110.801,4.716C112.888,4.716 114.568,6.428 114.568,8.516C114.568,10.603 112.889,12.282 110.801,12.282C108.714,12.282 107.001,10.603 107.001,8.516C107.001,6.428 108.714,4.716 110.801,4.716ZM255.434,4.716C257.521,4.716 259.201,6.428 259.201,8.516C259.201,10.603 257.522,12.282 255.434,12.282C253.347,12.282 251.635,10.603 251.635,8.516C251.635,6.428 253.347,4.716 255.434,4.716ZM8.534,107.016C10.621,107.016 12.301,108.695 12.301,110.782C12.301,112.87 10.622,114.549 8.534,114.549C6.447,114.549 4.735,112.87 4.735,110.782C4.735,108.695 6.447,107.016 8.534,107.016ZM357.701,107.016C359.788,107.016 361.468,108.695 361.468,110.782C361.468,112.87 359.789,114.549 357.701,114.549C355.614,114.549 353.934,112.87 353.934,110.782C353.934,108.695 355.613,107.016 357.701,107.016ZM154.168,153.382C162.906,153.071 171.294,160.878 173.668,171.516C171.475,168.656 167.693,167.534 164.301,168.749C160.909,169.964 158.678,173.249 158.801,176.849C158.926,180.449 161.368,183.534 164.835,184.515C168.301,185.496 172.01,184.122 174.002,181.115C172.342,191.331 164.426,197.43 155.602,195.282C146.778,193.133 139.835,183.425 139.468,172.715C139.104,162.005 145.429,153.693 154.168,153.382L154.168,153.382ZM212.034,153.382C220.774,153.694 227.1,162.006 226.734,172.716C226.369,183.426 219.424,193.134 210.601,195.282C201.777,197.431 193.894,191.332 192.234,181.116C194.225,184.119 197.935,185.496 201.401,184.516C204.868,183.535 207.278,180.45 207.401,176.85C207.526,173.249 205.327,169.965 201.934,168.75C198.542,167.535 194.76,168.657 192.567,171.517C194.941,160.879 203.295,153.072 212.034,153.383L212.034,153.382ZM8.534,251.649C10.621,251.649 12.301,253.328 12.301,255.416C12.301,257.503 10.622,259.183 8.534,259.183C6.447,259.183 4.735,257.504 4.735,255.416C4.735,253.329 6.447,251.649 8.534,251.649ZM357.701,251.649C359.788,251.649 361.468,253.328 361.468,255.416C361.468,257.503 359.789,259.183 357.701,259.183C355.614,259.183 353.934,257.504 353.934,255.416C353.934,253.329 355.613,251.649 357.701,251.649ZM110.801,353.916C112.888,353.916 114.568,355.595 114.568,357.683C114.568,359.77 112.889,361.483 110.801,361.483C108.714,361.483 107.001,359.77 107.001,357.683C107.001,355.596 108.714,353.916 110.801,353.916ZM255.434,353.916C257.521,353.916 259.201,355.595 259.201,357.683C259.201,359.77 257.522,361.483 255.434,361.483C253.347,361.483 251.635,359.77 251.635,357.683C251.635,355.596 253.347,353.916 255.434,353.916Z"/>
</svg>
